<svg xmlns="http://www.w3.org/2000/svg" width="1208.34912109375" height="1273.185546875" viewBox="-653.685791015625 -664.9810180664062 1208.34912109375 1273.185546875"><title>Neo4j Graph Visualization</title><desc>Created using Neo4j (http://www.neo4j.com/)</desc><g class="layer relationships"><g class="relationship" transform="translate(-85.65194680556843 328.82052688140186) rotate(402.3969190532674)"><path class="b-outline" fill="#A5ABB6" stroke="none" d="M 25 0.5 L 45.80149850679486 0.5 L 45.80149850679486 -0.5 L 25 -0.5 Z M 91.21556100679486 0.5 L 112.01705951358971 0.5 L 112.01705951358971 3.5 L 119.01705951358971 0 L 112.01705951358971 -3.5 L 112.01705951358971 -0.5 L 91.21556100679486 -0.5 Z"/><text text-anchor="middle" pointer-events="none" font-size="8px" fill="#000000" x="68.50852975679486" y="3" font-family="Helvetica Neue, Helvetica, Arial, sans-serif">RELATION</text></g><g class="relationship" transform="translate(20.703441699479406 425.92585509196493) rotate(279.34675886204474)"><path class="b-outline" fill="#A5ABB6" stroke="none" d="M 25 0.5 L 46.56213222649717 0.5 L 46.56213222649717 -0.5 L 25 -0.5 Z M 91.97619472649717 0.5 L 113.53832695299434 0.5 L 113.53832695299434 3.5 L 120.53832695299434 0 L 113.53832695299434 -3.5 L 113.53832695299434 -0.5 L 91.97619472649717 -0.5 Z"/><text text-anchor="middle" pointer-events="none" font-size="8px" fill="#000000" x="69.26916347649717" y="3" font-family="Helvetica Neue, Helvetica, Arial, sans-serif">RELATION</text></g><g class="relationship" transform="translate(20.703441699479406 425.92585509196493) rotate(418.3998044842463)"><path class="b-outline" fill="#A5ABB6" stroke="none" d="M 25 0.5 L 45.888455789977215 0.5 L 45.888455789977215 -0.5 L 25 -0.5 Z M 91.30251828997721 0.5 L 112.19097407995443 0.5 L 112.19097407995443 3.5 L 119.19097407995443 0 L 112.19097407995443 -3.5 L 112.19097407995443 -0.5 L 91.30251828997721 -0.5 Z"/><text text-anchor="middle" pointer-events="none" font-size="8px" fill="#000000" x="68.59548703997721" y="3" font-family="Helvetica Neue, Helvetica, Arial, sans-serif">RELATION</text></g><g class="relationship" transform="translate(274.66013706114774 426.6523849615889) rotate(358.15737107761595)"><path class="b-outline" fill="#A5ABB6" stroke="none" d="M 25 0.5 L 44.04279258291051 0.5 L 44.04279258291051 -0.5 L 25 -0.5 Z M 89.45685508291051 0.5 L 108.49964766582102 0.5 L 108.49964766582102 3.5 L 115.49964766582102 0 L 108.49964766582102 -3.5 L 108.49964766582102 -0.5 L 89.45685508291051 -0.5 Z"/><text text-anchor="middle" pointer-events="none" font-size="8px" fill="#000000" x="66.74982383291051" y="3" font-family="Helvetica Neue, Helvetica, Arial, sans-serif">RELATION</text></g><g class="relationship" transform="translate(274.66013706114774 426.6523849615889) rotate(318.4740310214253)"><path class="b-outline" fill="#A5ABB6" stroke="none" d="M 25 0.5 L 50.83371932964832 0.5 L 50.83371932964832 -0.5 L 25 -0.5 Z M 96.24778182964832 0.5 L 122.08150115929664 0.5 L 122.08150115929664 3.5 L 129.08150115929664 0 L 122.08150115929664 -3.5 L 122.08150115929664 -0.5 L 96.24778182964832 -0.5 Z"/><text text-anchor="middle" pointer-events="none" font-size="8px" fill="#000000" x="73.54075057964832" y="3" font-family="Helvetica Neue, Helvetica, Arial, sans-serif">RELATION</text></g><g class="relationship" transform="translate(290.7478400197066 328.37138089453407) rotate(397.0196701917653)"><path class="b-outline" fill="#A5ABB6" stroke="none" d="M 25 0.5 L 51.65794921604848 0.5 L 51.65794921604848 -0.5 L 25 -0.5 Z M 97.07201171604848 0.5 L 123.72996093209696 0.5 L 123.72996093209696 3.5 L 130.72996093209696 0 L 123.72996093209696 -3.5 L 123.72996093209696 -0.5 L 97.07201171604848 -0.5 Z"/><text text-anchor="middle" pointer-events="none" font-size="8px" fill="#000000" x="74.36498046604848" y="3" font-family="Helvetica Neue, Helvetica, Arial, sans-serif">RELATION</text></g><g class="relationship" transform="translate(525.6633312528165 326.04536531410565) rotate(499.0097655528356)"><path class="b-outline" fill="#A5ABB6" stroke="none" d="M 25 0.5 L 47.039566315239256 0.5 L 47.039566315239256 -0.5 L 25 -0.5 Z M 92.45362881523926 0.5 L 114.49319513047851 0.5 L 114.49319513047851 3.5 L 121.49319513047851 0 L 114.49319513047851 -3.5 L 114.49319513047851 -0.5 L 92.45362881523926 -0.5 Z"/><text text-anchor="middle" pointer-events="none" font-size="8px" fill="#000000" x="69.74659756523926" y="3" transform="rotate(180 69.74659756523926 0)" font-family="Helvetica Neue, Helvetica, Arial, sans-serif">RELATION</text></g><g class="relationship" transform="translate(510.36440353597914 63.89215467741585) rotate(210.65269491006876)"><path class="b-outline" fill="#A5ABB6" stroke="none" d="M 25 0.5 L 45.69833309696385 0.5 L 45.69833309696385 -0.5 L 25 -0.5 Z M 91.11239559696385 0.5 L 111.8107286939277 0.5 L 111.8107286939277 3.5 L 118.8107286939277 0 L 111.8107286939277 -3.5 L 111.8107286939277 -0.5 L 91.11239559696385 -0.5 Z"/><text text-anchor="middle" pointer-events="none" font-size="8px" fill="#000000" x="68.40536434696385" y="3" transform="rotate(180 68.40536434696385 0)" font-family="Helvetica Neue, Helvetica, Arial, sans-serif">RELATION</text></g><g class="relationship" transform="translate(386.6478449391758 -9.42727532883969) rotate(330.6241705735647)"><path class="b-outline" fill="#A5ABB6" stroke="none" d="M 25 0.5 L 47.648071415144244 0.5 L 47.648071415144244 -0.5 L 25 -0.5 Z M 93.06213391514424 0.5 L 115.71020533028849 0.5 L 115.71020533028849 3.5 L 122.71020533028849 0 L 115.71020533028849 -3.5 L 115.71020533028849 -0.5 L 93.06213391514424 -0.5 Z"/><text text-anchor="middle" pointer-events="none" font-size="8px" fill="#000000" x="70.35510266514424" y="3" font-family="Helvetica Neue, Helvetica, Arial, sans-serif">RELATION</text></g><g class="relationship" transform="translate(386.91475064065696 -133.5287464514184) rotate(498.62034128960005)"><path class="b-outline" fill="#A5ABB6" stroke="none" d="M 25 0.5 L 53.085965709073434 0.5 L 53.085965709073434 -0.5 L 25 -0.5 Z M 98.50002820907343 0.5 L 126.58599391814687 0.5 L 126.58599391814687 3.5 L 133.58599391814687 0 L 126.58599391814687 -3.5 L 126.58599391814687 -0.5 L 98.50002820907343 -0.5 Z"/><text text-anchor="middle" pointer-events="none" font-size="8px" fill="#000000" x="75.79299695907343" y="3" transform="rotate(180 75.79299695907343 0)" font-family="Helvetica Neue, Helvetica, Arial, sans-serif">RELATION</text></g><g class="relationship" transform="translate(287.7549873881592 -126.15852005956633) rotate(409.7292585190377)"><path class="b-outline" fill="#A5ABB6" stroke="none" d="M 25 0.5 L 50.288035210181704 0.5 L 50.288035210181704 -0.5 L 25 -0.5 Z M 95.7020977101817 0.5 L 120.99013292036341 0.5 L 120.99013292036341 3.5 L 127.99013292036341 0 L 120.99013292036341 -3.5 L 120.99013292036341 -0.5 L 95.7020977101817 -0.5 Z"/><text text-anchor="middle" pointer-events="none" font-size="8px" fill="#000000" x="72.9950664601817" y="3" font-family="Helvetica Neue, Helvetica, Arial, sans-serif">RELATION</text></g><g class="relationship" transform="translate(357.17687255247256 -391.4311414178872) rotate(507.36892520219453)"><path class="b-outline" fill="#A5ABB6" stroke="none" d="M 25 0.5 L 46.1113253704372 0.5 L 46.1113253704372 -0.5 L 25 -0.5 Z M 91.5253878704372 0.5 L 112.6367132408744 0.5 L 112.6367132408744 3.5 L 119.6367132408744 0 L 112.6367132408744 -3.5 L 112.6367132408744 -0.5 L 91.5253878704372 -0.5 Z"/><text text-anchor="middle" pointer-events="none" font-size="8px" fill="#000000" x="68.8183566204372" y="3" transform="rotate(180 68.8183566204372 0)" font-family="Helvetica Neue, Helvetica, Arial, sans-serif">RELATION</text></g><g class="relationship" transform="translate(190.1406049210003 -538.1770203704003) rotate(492.1489970184182)"><path class="b-outline" fill="#A5ABB6" stroke="none" d="M 25 0.5 L 48.21885218427067 0.5 L 48.21885218427067 -0.5 L 25 -0.5 Z M 93.63291468427067 0.5 L 116.85176686854135 0.5 L 116.85176686854135 3.5 L 123.85176686854135 0 L 116.85176686854135 -3.5 L 116.85176686854135 -0.5 L 93.63291468427067 -0.5 Z"/><text text-anchor="middle" pointer-events="none" font-size="8px" fill="#000000" x="70.92588343427067" y="3" transform="rotate(180 70.92588343427067 0)" font-family="Helvetica Neue, Helvetica, Arial, sans-serif">RELATION</text></g><g class="relationship" transform="translate(90.25200706641425 -427.8179857672861) rotate(471.5413082840571)"><path class="b-outline" fill="#A5ABB6" stroke="none" d="M 25 0.5 L 46.70703405211387 0.5 L 46.70703405211387 -0.5 L 25 -0.5 Z M 92.12109655211387 0.5 L 113.82813060422774 0.5 L 113.82813060422774 3.5 L 120.82813060422774 0 L 113.82813060422774 -3.5 L 113.82813060422774 -0.5 L 92.12109655211387 -0.5 Z"/><text text-anchor="middle" pointer-events="none" font-size="8px" fill="#000000" x="69.41406530211387" y="3" transform="rotate(180 69.41406530211387 0)" font-family="Helvetica Neue, Helvetica, Arial, sans-serif">RELATION</text></g><g class="relationship" transform="translate(84.96913891812146 -635.9810286355033) rotate(402.921231615816)"><path class="b-outline" fill="#A5ABB6" stroke="none" d="M 25 0.5 L 45.6028937149988 0.5 L 45.6028937149988 -0.5 L 25 -0.5 Z M 91.0169562149988 0.5 L 111.6198499299976 0.5 L 111.6198499299976 3.5 L 118.6198499299976 0 L 111.6198499299976 -3.5 L 111.6198499299976 -0.5 L 91.0169562149988 -0.5 Z"/><text text-anchor="middle" pointer-events="none" font-size="8px" fill="#000000" x="68.3099249649988" y="3" font-family="Helvetica Neue, Helvetica, Arial, sans-serif">RELATION</text></g><g class="relationship" transform="translate(-34.74188060653408 -499.91752863907504) rotate(389.9774036917739)"><path class="b-outline" fill="#A5ABB6" stroke="none" d="M 25 0.5 L 45.94180110007785 0.5 L 45.94180110007785 -0.5 L 25 -0.5 Z M 91.35586360007785 0.5 L 112.2976647001557 0.5 L 112.2976647001557 3.5 L 119.2976647001557 0 L 112.2976647001557 -3.5 L 112.2976647001557 -0.5 L 91.35586360007785 -0.5 Z"/><text text-anchor="middle" pointer-events="none" font-size="8px" fill="#000000" x="68.64883235007785" y="3" font-family="Helvetica Neue, Helvetica, Arial, sans-serif">RELATION</text></g><g class="relationship" transform="translate(-167.14492746219364 -347.6272066207925) rotate(238.5054732716053)"><path class="b-outline" fill="#A5ABB6" stroke="none" d="M 25 0.5 L 46.38514829722094 0.5 L 46.38514829722094 -0.5 L 25 -0.5 Z M 91.79921079722094 0.5 L 113.18435909444187 0.5 L 113.18435909444187 3.5 L 120.18435909444187 0 L 113.18435909444187 -3.5 L 113.18435909444187 -0.5 L 91.79921079722094 -0.5 Z"/><text text-anchor="middle" pointer-events="none" font-size="8px" fill="#000000" x="69.09217954722094" y="3" transform="rotate(180 69.09217954722094 0)" font-family="Helvetica Neue, Helvetica, Arial, sans-serif">RELATION</text></g><g class="relationship" transform="translate(-535.9311328471935 -322.4415582405141) rotate(402.75303556589665)"><path class="b-outline" fill="#A5ABB6" stroke="none" d="M 25 0.5 L 73.09946333518681 0.5 L 73.09946333518681 -0.5 L 25 -0.5 Z M 118.51352583518681 0.5 L 166.61298917037362 0.5 L 166.61298917037362 3.5 L 173.61298917037362 0 L 166.61298917037362 -3.5 L 166.61298917037362 -0.5 L 118.51352583518681 -0.5 Z"/><text text-anchor="middle" pointer-events="none" font-size="8px" fill="#000000" x="95.80649458518681" y="3" font-family="Helvetica Neue, Helvetica, Arial, sans-serif">RELATION</text></g><g class="relationship" transform="translate(-535.9311328471935 -322.4415582405141) rotate(495.3226115773162)"><path class="b-outline" fill="#A5ABB6" stroke="none" d="M 25 0.5 L 36.20159831604963 0.5 L 36.20159831604963 -0.5 L 25 -0.5 Z M 81.61566081604963 0.5 L 92.81725913209927 0.5 L 92.81725913209927 3.5 L 99.81725913209927 0 L 92.81725913209927 -3.5 L 92.81725913209927 -0.5 L 81.61566081604963 -0.5 Z"/><text text-anchor="middle" pointer-events="none" font-size="8px" fill="#000000" x="58.90862956604963" y="3" transform="rotate(180 58.90862956604963 0)" font-family="Helvetica Neue, Helvetica, Arial, sans-serif">RELATION</text></g><g class="relationship" transform="translate(-535.9311328471935 -322.4415582405141) rotate(467.6428429722281)"><path class="b-outline" fill="#A5ABB6" stroke="none" d="M 25 0.5 L 69.45093094574628 0.5 L 69.45093094574628 -0.5 L 25 -0.5 Z M 114.86499344574628 0.5 L 159.31592439149256 0.5 L 159.31592439149256 3.5 L 166.31592439149256 0 L 159.31592439149256 -3.5 L 159.31592439149256 -0.5 L 114.86499344574628 -0.5 Z"/><text text-anchor="middle" pointer-events="none" font-size="8px" fill="#000000" x="92.15796219574628" y="3" transform="rotate(180 92.15796219574628 0)" font-family="Helvetica Neue, Helvetica, Arial, sans-serif">RELATION</text></g><g class="relationship" transform="translate(-535.9311328471935 -322.4415582405141) rotate(354.3262806755836)"><path class="b-outline" fill="#A5ABB6" stroke="none" d="M 25 0.5 L 49.21579035348748 0.5 L 49.21579035348748 -0.5 L 25 -0.5 Z M 94.62985285348748 0.5 L 118.84564320697496 0.5 L 118.84564320697496 3.5 L 125.84564320697496 0 L 118.84564320697496 -3.5 L 118.84564320697496 -0.5 L 94.62985285348748 -0.5 Z"/><text text-anchor="middle" pointer-events="none" font-size="8px" fill="#000000" x="71.92282160348748" y="3" font-family="Helvetica Neue, Helvetica, Arial, sans-serif">RELATION</text></g><g class="relationship" transform="translate(-535.9311328471935 -322.4415582405141) rotate(436.34318345816496)"><path class="b-outline" fill="#A5ABB6" stroke="none" d="M 25 0.5 L 55.01863832154844 0.5 L 55.01863832154844 -0.5 L 25 -0.5 Z M 100.43270082154844 0.5 L 130.45133914309687 0.5 L 130.45133914309687 3.5 L 137.45133914309687 0 L 130.45133914309687 -3.5 L 130.45133914309687 -0.5 L 100.43270082154844 -0.5 Z"/><text text-anchor="middle" pointer-events="none" font-size="8px" fill="#000000" x="77.72566957154844" y="3" font-family="Helvetica Neue, Helvetica, Arial, sans-serif">RELATION</text></g><g class="relationship" transform="translate(-390.09228721311604 -187.6151862975196) rotate(411.3729038929455)"><path class="b-outline" fill="#A5ABB6" stroke="none" d="M 25 0.5 L 51.66825552106175 0.5 L 51.66825552106175 -0.5 L 25 -0.5 Z M 97.08231802106175 0.5 L 123.7505735421235 0.5 L 123.7505735421235 3.5 L 130.7505735421235 0 L 123.7505735421235 -3.5 L 123.7505735421235 -0.5 L 97.08231802106175 -0.5 Z"/><text text-anchor="middle" pointer-events="none" font-size="8px" fill="#000000" x="74.37528677106175" y="3" font-family="Helvetica Neue, Helvetica, Arial, sans-serif">RELATION</text></g><g class="relationship" transform="translate(-624.6858163611687 -234.68077923540437) rotate(352.17379252785986)"><path class="b-outline" fill="#A5ABB6" stroke="none" d="M 25 0.5 L 55.90286750186648 0.5 L 55.90286750186648 -0.5 L 25 -0.5 Z M 101.31693000186648 0.5 L 132.21979750373296 0.5 L 132.21979750373296 3.5 L 139.21979750373296 0 L 132.21979750373296 -3.5 L 132.21979750373296 -0.5 L 101.31693000186648 -0.5 Z"/><text text-anchor="middle" pointer-events="none" font-size="8px" fill="#000000" x="78.60989875186648" y="3" font-family="Helvetica Neue, Helvetica, Arial, sans-serif">RELATION</text></g><g class="relationship" transform="translate(-593.9156520922448 -140.12431151467206) rotate(441.08880772823204)"><path class="b-outline" fill="#A5ABB6" stroke="none" d="M 25 0.5 L 50.81814077166642 0.5 L 50.81814077166642 -0.5 L 25 -0.5 Z M 96.23220327166642 0.5 L 122.05034404333284 0.5 L 122.05034404333284 3.5 L 129.05034404333284 0 L 122.05034404333284 -3.5 L 122.05034404333284 -0.5 L 96.23220327166642 -0.5 Z"/><text text-anchor="middle" pointer-events="none" font-size="8px" fill="#000000" x="73.52517202166642" y="3" font-family="Helvetica Neue, Helvetica, Arial, sans-serif">RELATION</text></g><g class="relationship" transform="translate(-381.54257910559477 400.55606497374504) rotate(299.2055305414145)"><path class="b-outline" fill="#A5ABB6" stroke="none" d="M 25 0.5 L 45.325123695108545 0.5 L 45.325123695108545 -0.5 L 25 -0.5 Z M 90.73918619510854 0.5 L 111.06430989021709 0.5 L 111.06430989021709 3.5 L 118.06430989021709 0 L 111.06430989021709 -3.5 L 111.06430989021709 -0.5 L 90.73918619510854 -0.5 Z"/><text text-anchor="middle" pointer-events="none" font-size="8px" fill="#000000" x="68.03215494510854" y="3" font-family="Helvetica Neue, Helvetica, Arial, sans-serif">RELATION</text></g><g class="relationship" transform="translate(-381.54257910559477 400.55606497374504) rotate(399.2047473488654)"><path class="b-outline" fill="#A5ABB6" stroke="none" d="M 25 0.5 L 46.35774861647356 0.5 L 46.35774861647356 -0.5 L 25 -0.5 Z M 91.77181111647356 0.5 L 113.12955973294711 0.5 L 113.12955973294711 3.5 L 120.12955973294711 0 L 113.12955973294711 -3.5 L 113.12955973294711 -0.5 L 91.77181111647356 -0.5 Z"/><text text-anchor="middle" pointer-events="none" font-size="8px" fill="#000000" x="69.06477986647356" y="3" font-family="Helvetica Neue, Helvetica, Arial, sans-serif">RELATION</text></g><g class="relationship" transform="translate(-269.08282716878705 492.29151778557093) rotate(397.388178073041)"><path class="b-outline" fill="#A5ABB6" stroke="none" d="M 25 0.5 L 45.36019361631483 0.5 L 45.36019361631483 -0.5 L 25 -0.5 Z M 90.77425611631483 0.5 L 111.13444973262966 0.5 L 111.13444973262966 3.5 L 118.13444973262966 0 L 111.13444973262966 -3.5 L 111.13444973262966 -0.5 L 90.77425611631483 -0.5 Z"/><text text-anchor="middle" pointer-events="none" font-size="8px" fill="#000000" x="68.06722486631483" y="3" font-family="Helvetica Neue, Helvetica, Arial, sans-serif">RELATION</text></g></g><g class="layer nodes"><g class="node" aria-label="graph-node6" transform="translate(-85.65194680556843,328.82052688140186)"><circle class="b-outline" cx="0" cy="0" r="25" fill="#F79767" stroke="#f36924" stroke-width="2px"/><text class="caption" text-anchor="middle" pointer-events="none" x="0" y="5" font-size="10px" fill="#FFFFFF" font-family="Helvetica Neue, Helvetica, Arial, sans-serif"> Mary_Jo…</text></g><g class="node" aria-label="graph-node7" transform="translate(20.703441699479406,425.92585509196493)"><circle class="b-outline" cx="0" cy="0" r="25" fill="#F79767" stroke="#f36924" stroke-width="2px"/><text class="caption" text-anchor="middle" pointer-events="none" x="0" y="5" font-size="10px" fill="#FFFFFF" font-family="Helvetica Neue, Helvetica, Arial, sans-serif"> email_2…</text></g><g class="node" aria-label="graph-node8" transform="translate(44.3401956780958,282.31976722090343)"><circle class="b-outline" cx="0" cy="0" r="25" fill="#F79767" stroke="#f36924" stroke-width="2px"/><text class="caption" text-anchor="middle" pointer-events="none" x="0" y="5" font-size="10px" fill="#FFFFFF" font-family="Helvetica Neue, Helvetica, Arial, sans-serif"> Alex_Ca…</text></g><g class="node" aria-label="graph-node9" transform="translate(96.25789896565563,548.7369335553497)"><circle class="b-outline" cx="0" cy="0" r="25" fill="#F79767" stroke="#f36924" stroke-width="2px"/><text class="caption" text-anchor="middle" pointer-events="none" x="0" y="5" font-size="10px" fill="#FFFFFF" font-family="Helvetica Neue, Helvetica, Arial, sans-serif"> Project_…</text></g><g class="node" aria-label="graph-node11" transform="translate(274.66013706114774,426.6523849615889)"><circle class="b-outline" cx="0" cy="0" r="25" fill="#F79767" stroke="#f36924" stroke-width="2px"/><text class="caption" text-anchor="middle" pointer-events="none" x="0" y="5" font-size="10px" fill="#FFFFFF" font-family="Helvetica Neue, Helvetica, Arial, sans-serif"> Chris</text></g><g class="node" aria-label="graph-node12" transform="translate(415.0871342766607,422.1347033377742)"><circle class="b-outline" cx="0" cy="0" r="25" fill="#F79767" stroke="#f36924" stroke-width="2px"/><text class="caption" text-anchor="middle" pointer-events="none" x="0" y="5" font-size="10px" fill="#FFFFFF" font-family="Helvetica Neue, Helvetica, Arial, sans-serif"> Team_D…</text></g><g class="node" aria-label="graph-node21" transform="translate(390.01407187652666,324.50259924418447)"><circle class="b-outline" cx="0" cy="0" r="25" fill="#F79767" stroke="#f36924" stroke-width="2px"/><text class="caption" text-anchor="middle" pointer-events="none" x="0" y="5" font-size="10px" fill="#FFFFFF" font-family="Helvetica Neue, Helvetica, Arial, sans-serif"> DevOps</text></g><g class="node" aria-label="graph-node13" transform="translate(290.7478400197066,328.37138089453407)"><circle class="b-outline" cx="0" cy="0" r="25" fill="#F79767" stroke="#f36924" stroke-width="2px"/><text class="caption" text-anchor="middle" pointer-events="none" x="0" y="5" font-size="10px" fill="#FFFFFF" font-family="Helvetica Neue, Helvetica, Arial, sans-serif"> Emma</text></g><g class="node" aria-label="graph-node14" transform="translate(525.6633312528165,326.04536531410565)"><circle class="b-outline" cx="0" cy="0" r="25" fill="#F79767" stroke="#f36924" stroke-width="2px"/><text class="caption" text-anchor="middle" pointer-events="none" x="0" y="5" font-size="10px" fill="#FFFFFF" font-family="Helvetica Neue, Helvetica, Arial, sans-serif"> Sam</text></g><g class="node" aria-label="graph-node15" transform="translate(510.36440353597914,63.89215467741585)"><circle class="b-outline" cx="0" cy="0" r="25" fill="#F79767" stroke="#f36924" stroke-width="2px"/><text class="caption" text-anchor="middle" pointer-events="none" x="0" y="5" font-size="10px" fill="#FFFFFF" font-family="Helvetica Neue, Helvetica, Arial, sans-serif"> microser…</text></g><g class="node" aria-label="graph-node16" transform="translate(386.6478449391758,-9.42727532883969)"><circle class="b-outline" cx="0" cy="0" r="25" fill="#F79767" stroke="#f36924" stroke-width="2px"/><text class="caption" text-anchor="middle" pointer-events="none" x="0" y="5" font-size="10px" fill="#FFFFFF" font-family="Helvetica Neue, Helvetica, Arial, sans-serif"> auth_ser…</text></g><g class="node" aria-label="graph-node17" transform="translate(515.3655938301655,-81.88447565532279)"><circle class="b-outline" cx="0" cy="0" r="25" fill="#F79767" stroke="#f36924" stroke-width="2px"/><text class="caption" text-anchor="middle" pointer-events="none" x="0" y="5" font-size="10px" fill="#FFFFFF" font-family="Helvetica Neue, Helvetica, Arial, sans-serif"> intermitt…</text></g><g class="node" aria-label="graph-node18" transform="translate(386.91475064065696,-133.5287464514184)"><circle class="b-outline" cx="0" cy="0" r="25" fill="#F79767" stroke="#f36924" stroke-width="2px"/><text class="caption" text-anchor="middle" pointer-events="none" x="0" y="5" font-size="10px" fill="#FFFFFF" font-family="Helvetica Neue, Helvetica, Arial, sans-serif"> CPU_spi…</text></g><g class="node" aria-label="graph-node19" transform="translate(267.92041570068073,-28.696186055331232)"><circle class="b-outline" cx="0" cy="0" r="25" fill="#F79767" stroke="#f36924" stroke-width="2px"/><text class="caption" text-anchor="middle" pointer-events="none" x="0" y="5" font-size="10px" fill="#FFFFFF" font-family="Helvetica Neue, Helvetica, Arial, sans-serif"> scaling_i…</text></g><g class="node" aria-label="graph-node20" transform="translate(287.7549873881592,-126.15852005956633)"><circle class="b-outline" cx="0" cy="0" r="25" fill="#F79767" stroke="#f36924" stroke-width="2px"/><text class="caption" text-anchor="middle" pointer-events="none" x="0" y="5" font-size="10px" fill="#FFFFFF" font-family="Helvetica Neue, Helvetica, Arial, sans-serif"> load_bal…</text></g><g class="node" aria-label="graph-node22" transform="translate(357.17687255247256,-391.4311414178872)"><circle class="b-outline" cx="0" cy="0" r="25" fill="#F79767" stroke="#f36924" stroke-width="2px"/><text class="caption" text-anchor="middle" pointer-events="none" x="0" y="5" font-size="10px" fill="#FFFFFF" font-family="Helvetica Neue, Helvetica, Arial, sans-serif"> call_setup</text></g><g class="node" aria-label="graph-node23" transform="translate(235.3696084791452,-313.4390313291505)"><circle class="b-outline" cx="0" cy="0" r="25" fill="#F79767" stroke="#f36924" stroke-width="2px"/><text class="caption" text-anchor="middle" pointer-events="none" x="0" y="5" font-size="10px" fill="#FFFFFF" font-family="Helvetica Neue, Helvetica, Arial, sans-serif"> Ryan</text></g><g class="node" aria-label="graph-node24" transform="translate(190.1406049210003,-538.1770203704003)"><circle class="b-outline" cx="0" cy="0" r="25" fill="#F79767" stroke="#f36924" stroke-width="2px"/><text class="caption" text-anchor="middle" pointer-events="none" x="0" y="5" font-size="10px" fill="#FFFFFF" font-family="Helvetica Neue, Helvetica, Arial, sans-serif"> email_2…</text></g><g class="node" aria-label="graph-node25" transform="translate(90.25200706641425,-427.8179857672861)"><circle class="b-outline" cx="0" cy="0" r="25" fill="#F79767" stroke="#f36924" stroke-width="2px"/><text class="caption" text-anchor="middle" pointer-events="none" x="0" y="5" font-size="10px" fill="#FFFFFF" font-family="Helvetica Neue, Helvetica, Arial, sans-serif"> project_…</text></g><g class="node" aria-label="graph-node28" transform="translate(36.70801083973709,-292.17549926839706)"><circle class="b-outline" cx="0" cy="0" r="25" fill="#F79767" stroke="#f36924" stroke-width="2px"/><text class="caption" text-anchor="middle" pointer-events="none" x="0" y="5" font-size="10px" fill="#FFFFFF" font-family="Helvetica Neue, Helvetica, Arial, sans-serif"> agile_st…</text></g><g class="node" aria-label="graph-node26" transform="translate(84.96913891812146,-635.9810286355033)"><circle class="b-outline" cx="0" cy="0" r="25" fill="#F79767" stroke="#f36924" stroke-width="2px"/><text class="caption" text-anchor="middle" pointer-events="none" x="0" y="5" font-size="10px" fill="#FFFFFF" font-family="Helvetica Neue, Helvetica, Arial, sans-serif"> john_doe</text></g><g class="node" aria-label="graph-node27" transform="translate(-34.74188060653408,-499.91752863907504)"><circle class="b-outline" cx="0" cy="0" r="25" fill="#F79767" stroke="#f36924" stroke-width="2px"/><text class="caption" text-anchor="middle" pointer-events="none" x="0" y="5" font-size="10px" fill="#FFFFFF" font-family="Helvetica Neue, Helvetica, Arial, sans-serif"> michael…</text></g><g class="node" aria-label="graph-node29" transform="translate(-167.14492746219364,-347.6272066207925)"><circle class="b-outline" cx="0" cy="0" r="25" fill="#F79767" stroke="#f36924" stroke-width="2px"/><text class="caption" text-anchor="middle" pointer-events="none" x="0" y="5" font-size="10px" fill="#FFFFFF" font-family="Helvetica Neue, Helvetica, Arial, sans-serif"> Q1_Perf…</text></g><g class="node" aria-label="graph-node30" transform="translate(-242.99172112153798,-471.4244683726612)"><circle class="b-outline" cx="0" cy="0" r="25" fill="#F79767" stroke="#f36924" stroke-width="2px"/><text class="caption" text-anchor="middle" pointer-events="none" x="0" y="5" font-size="10px" fill="#FFFFFF" font-family="Helvetica Neue, Helvetica, Arial, sans-serif"> CEO</text></g><g class="node" aria-label="graph-node31" transform="translate(-535.9311328471935,-322.4415582405141)"><circle class="b-outline" cx="0" cy="0" r="25" fill="#F79767" stroke="#f36924" stroke-width="2px"/><text class="caption" text-anchor="middle" pointer-events="none" x="0" y="5" font-size="10px" fill="#FFFFFF" font-family="Helvetica Neue, Helvetica, Arial, sans-serif"> SAGE Ltd</text></g><g class="node" aria-label="graph-node32" transform="translate(-390.09228721311604,-187.6151862975196)"><circle class="b-outline" cx="0" cy="0" r="25" fill="#F79767" stroke="#f36924" stroke-width="2px"/><text class="caption" text-anchor="middle" pointer-events="none" x="0" y="5" font-size="10px" fill="#FFFFFF" font-family="Helvetica Neue, Helvetica, Arial, sans-serif"> Phoenix</text></g><g class="node" aria-label="graph-node33" transform="translate(-624.6858163611687,-234.68077923540437)"><circle class="b-outline" cx="0" cy="0" r="25" fill="#F79767" stroke="#f36924" stroke-width="2px"/><text class="caption" text-anchor="middle" pointer-events="none" x="0" y="5" font-size="10px" fill="#FFFFFF" font-family="Helvetica Neue, Helvetica, Arial, sans-serif"> Orion</text></g><g class="node" aria-label="graph-node34" transform="translate(-593.9156520922448,-140.12431151467206)"><circle class="b-outline" cx="0" cy="0" r="25" fill="#F79767" stroke="#f36924" stroke-width="2px"/><text class="caption" text-anchor="middle" pointer-events="none" x="0" y="5" font-size="10px" fill="#FFFFFF" font-family="Helvetica Neue, Helvetica, Arial, sans-serif"> Nova</text></g><g class="node" aria-label="graph-node38" transform="translate(-385.8244791735659,-337.35465977680184)"><circle class="b-outline" cx="0" cy="0" r="25" fill="#F79767" stroke="#f36924" stroke-width="2px"/><text class="caption" text-anchor="middle" pointer-events="none" x="0" y="5" font-size="10px" fill="#FFFFFF" font-family="Helvetica Neue, Helvetica, Arial, sans-serif"> Q1_Targ…</text></g><g class="node" aria-label="graph-node39" transform="translate(-497.5754248143527,-164.58314937141094)"><circle class="b-outline" cx="0" cy="0" r="25" fill="#F79767" stroke="#f36924" stroke-width="2px"/><text class="caption" text-anchor="middle" pointer-events="none" x="0" y="5" font-size="10px" fill="#FFFFFF" font-family="Helvetica Neue, Helvetica, Arial, sans-serif"> Project_…</text></g><g class="node" aria-label="graph-node35" transform="translate(-292.86512863296406,-65.93889118162448)"><circle class="b-outline" cx="0" cy="0" r="25" fill="#F79767" stroke="#f36924" stroke-width="2px"/><text class="caption" text-anchor="middle" pointer-events="none" x="0" y="-5" font-size="10px" fill="#FFFFFF" font-family="Helvetica Neue, Helvetica, Arial, sans-serif"> Core</text><text class="caption" text-anchor="middle" pointer-events="none" x="0" y="5" font-size="10px" fill="#FFFFFF" font-family="Helvetica Neue, Helvetica, Arial, sans-serif"> modules</text><text class="caption" text-anchor="middle" pointer-events="none" x="0" y="15" font-size="10px" fill="#FFFFFF" font-family="Helvetica Neue, Helvetica, Arial, sans-serif"> integr</text></g><g class="node" aria-label="graph-node36" transform="translate(-461.995617948195,-257.04238097844393)"><circle class="b-outline" cx="0" cy="0" r="25" fill="#F79767" stroke="#f36924" stroke-width="2px"/><text class="caption" text-anchor="middle" pointer-events="none" x="0" y="-5" font-size="10px" fill="#FFFFFF" font-family="Helvetica Neue, Helvetica, Arial, sans-serif"> Design</text><text class="caption" text-anchor="middle" pointer-events="none" x="0" y="5" font-size="10px" fill="#FFFFFF" font-family="Helvetica Neue, Helvetica, Arial, sans-serif"> 80%</text><text class="caption" text-anchor="middle" pointer-events="none" x="0" y="15" font-size="10px" fill="#FFFFFF" font-family="Helvetica Neue, Helvetica, Arial, sans-serif"> com…</text></g><g class="node" aria-label="graph-node37" transform="translate(-570.0527341271501,12.066587181867495)"><circle class="b-outline" cx="0" cy="0" r="25" fill="#F79767" stroke="#f36924" stroke-width="2px"/><text class="caption" text-anchor="middle" pointer-events="none" x="0" y="0" font-size="10px" fill="#FFFFFF" font-family="Helvetica Neue, Helvetica, Arial, sans-serif"> Initial</text><text class="caption" text-anchor="middle" pointer-events="none" x="0" y="10" font-size="10px" fill="#FFFFFF" font-family="Helvetica Neue, Helvetica, Arial, sans-serif"> requir…</text></g><g class="node" aria-label="graph-node40" transform="translate(-381.54257910559477,400.55606497374504)"><circle class="b-outline" cx="0" cy="0" r="25" fill="#F79767" stroke="#f36924" stroke-width="2px"/><text class="caption" text-anchor="middle" pointer-events="none" x="0" y="5" font-size="10px" fill="#FFFFFF" font-family="Helvetica Neue, Helvetica, Arial, sans-serif"> Document</text></g><g class="node" aria-label="graph-node2" transform="translate(-311.73521940072663,275.67880805560475)"><circle class="b-outline" cx="0" cy="0" r="25" fill="#F79767" stroke="#f36924" stroke-width="2px"/><text class="caption" text-anchor="middle" pointer-events="none" x="0" y="5" font-size="10px" fill="#FFFFFF" font-family="Helvetica Neue, Helvetica, Arial, sans-serif"> People</text></g><g class="node" aria-label="graph-node41" transform="translate(-269.08282716878705,492.29151778557093)"><circle class="b-outline" cx="0" cy="0" r="25" fill="#F79767" stroke="#f36924" stroke-width="2px"/><text class="caption" text-anchor="middle" pointer-events="none" x="0" y="5" font-size="10px" fill="#FFFFFF" font-family="Helvetica Neue, Helvetica, Arial, sans-serif"> Project</text></g><g class="node" aria-label="graph-node43" transform="translate(-155.3567922959824,579.2044609665052)"><circle class="b-outline" cx="0" cy="0" r="25" fill="#F79767" stroke="#f36924" stroke-width="2px"/><text class="caption" text-anchor="middle" pointer-events="none" x="0" y="5" font-size="10px" fill="#FFFFFF" font-family="Helvetica Neue, Helvetica, Arial, sans-serif"> ActionIte…</text></g></g></svg>