<svg xmlns="http://www.w3.org/2000/svg" width="1069.208984375" height="1161.1041259765625" viewBox="-557.170654296875 -594.9269409179688 1069.208984375 1161.1041259765625"><title>Neo4j Graph Visualization</title><desc>Created using Neo4j (http://www.neo4j.com/)</desc><g class="layer relationships"><g class="relationship" transform="translate(-55.357521271155456 405.6078667087448) rotate(414.38001729510387)"><path class="b-outline" fill="#A5ABB6" stroke="none" d="M 25 0.5 L 45.361514579663265 0.5 L 45.361514579663265 -0.5 L 25 -0.5 Z M 90.77557707966326 0.5 L 111.13709165932653 0.5 L 111.13709165932653 3.5 L 118.13709165932653 0 L 111.13709165932653 -3.5 L 111.13709165932653 -0.5 L 90.77557707966326 -0.5 Z"/><text text-anchor="middle" pointer-events="none" font-size="8px" fill="#000000" x="68.06854582966326" y="3" font-family="Helvetica Neue, Helvetica, Arial, sans-serif">RELATION</text></g><g class="relationship" transform="translate(28.006453451786243 521.9636775953661) rotate(291.8799644744528)"><path class="b-outline" fill="#A5ABB6" stroke="none" d="M 25 0.5 L 46.4792682280401 0.5 L 46.4792682280401 -0.5 L 25 -0.5 Z M 91.8933307280401 0.5 L 113.3725989560802 0.5 L 113.3725989560802 3.5 L 120.3725989560802 0 L 113.3725989560802 -3.5 L 113.3725989560802 -0.5 L 91.8933307280401 -0.5 Z"/><text text-anchor="middle" pointer-events="none" font-size="8px" fill="#000000" x="69.1862994780401" y="3" font-family="Helvetica Neue, Helvetica, Arial, sans-serif">RELATION</text></g><g class="relationship" transform="translate(28.006453451786243 521.9636775953661) rotate(366.0857728993559)"><path class="b-outline" fill="#A5ABB6" stroke="none" d="M 25 0.5 L 45.54292095286647 0.5 L 45.54292095286647 -0.5 L 25 -0.5 Z M 90.95698345286647 0.5 L 111.49990440573293 0.5 L 111.49990440573293 3.5 L 118.49990440573293 0 L 111.49990440573293 -3.5 L 111.49990440573293 -0.5 L 90.95698345286647 -0.5 Z"/><text text-anchor="middle" pointer-events="none" font-size="8px" fill="#000000" x="68.24995220286647" y="3" font-family="Helvetica Neue, Helvetica, Arial, sans-serif">RELATION</text></g><g class="relationship" transform="translate(337.7376593921038 354.5684333183474) rotate(266.1298950408756)"><path class="b-outline" fill="#A5ABB6" stroke="none" d="M 25 0.5 L 47.88649574435975 0.5 L 47.88649574435975 -0.5 L 25 -0.5 Z M 93.30055824435975 0.5 L 116.1870539887195 0.5 L 116.1870539887195 3.5 L 123.1870539887195 0 L 116.1870539887195 -3.5 L 116.1870539887195 -0.5 L 93.30055824435975 -0.5 Z"/><text text-anchor="middle" pointer-events="none" font-size="8px" fill="#000000" x="70.59352699435975" y="3" transform="rotate(180 70.59352699435975 0)" font-family="Helvetica Neue, Helvetica, Arial, sans-serif">RELATION</text></g><g class="relationship" transform="translate(337.7376593921038 354.5684333183474) rotate(356.7201493267338)"><path class="b-outline" fill="#A5ABB6" stroke="none" d="M 25 0.5 L 45.54389595754037 0.5 L 45.54389595754037 -0.5 L 25 -0.5 Z M 90.95795845754037 0.5 L 111.50185441508074 0.5 L 111.50185441508074 3.5 L 118.50185441508074 0 L 111.50185441508074 -3.5 L 111.50185441508074 -0.5 L 90.95795845754037 -0.5 Z"/><text text-anchor="middle" pointer-events="none" font-size="8px" fill="#000000" x="68.25092720754037" y="3" font-family="Helvetica Neue, Helvetica, Arial, sans-serif">RELATION</text></g><g class="relationship" transform="translate(279.5233593074782 112.3813950399052) rotate(365.0550234750253)"><path class="b-outline" fill="#A5ABB6" stroke="none" d="M 25 0.5 L 52.021771042508405 0.5 L 52.021771042508405 -0.5 L 25 -0.5 Z M 97.4358335425084 0.5 L 124.45760458501681 0.5 L 124.45760458501681 3.5 L 131.4576045850168 0 L 124.45760458501681 -3.5 L 124.45760458501681 -0.5 L 97.4358335425084 -0.5 Z"/><text text-anchor="middle" pointer-events="none" font-size="8px" fill="#000000" x="74.7288022925084" y="3" font-family="Helvetica Neue, Helvetica, Arial, sans-serif">RELATION</text></g><g class="relationship" transform="translate(327.73581526000225 206.719300470661) rotate(283.26842224368716)"><path class="b-outline" fill="#A5ABB6" stroke="none" d="M 25 0.5 L 50.19781925178631 0.5 L 50.19781925178631 -0.5 L 25 -0.5 Z M 95.61188175178631 0.5 L 120.80970100357263 0.5 L 120.80970100357263 3.5 L 127.80970100357263 0 L 120.80970100357263 -3.5 L 120.80970100357263 -0.5 L 95.61188175178631 -0.5 Z"/><text text-anchor="middle" pointer-events="none" font-size="8px" fill="#000000" x="72.90485050178631" y="3" font-family="Helvetica Neue, Helvetica, Arial, sans-serif">RELATION</text></g><g class="relationship" transform="translate(374.3672956336547 -130.46254723838442) rotate(319.2561097448621)"><path class="b-outline" fill="#A5ABB6" stroke="none" d="M 25 0.5 L 45.510278848069404 0.5 L 45.510278848069404 -0.5 L 25 -0.5 Z M 90.9243413480694 0.5 L 111.43462019613881 0.5 L 111.43462019613881 3.5 L 118.43462019613881 0 L 111.43462019613881 -3.5 L 111.43462019613881 -0.5 L 90.9243413480694 -0.5 Z"/><text text-anchor="middle" pointer-events="none" font-size="8px" fill="#000000" x="68.2173100980694" y="3" font-family="Helvetica Neue, Helvetica, Arial, sans-serif">RELATION</text></g><g class="relationship" transform="translate(455.82647743040036 -365.3848124888617) rotate(439.0997278529938)"><path class="b-outline" fill="#A5ABB6" stroke="none" d="M 25 0.5 L 45.74387316242844 0.5 L 45.74387316242844 -0.5 L 25 -0.5 Z M 91.15793566242844 0.5 L 111.90180882485689 0.5 L 111.90180882485689 3.5 L 118.90180882485689 0 L 111.90180882485689 -3.5 L 111.90180882485689 -0.5 L 91.15793566242844 -0.5 Z"/><text text-anchor="middle" pointer-events="none" font-size="8px" fill="#000000" x="68.45090441242844" y="3" font-family="Helvetica Neue, Helvetica, Arial, sans-serif">RELATION</text></g><g class="relationship" transform="translate(341.41444787159423 -257.8972066182953) rotate(373.4299849443613)"><path class="b-outline" fill="#A5ABB6" stroke="none" d="M 25 0.5 L 46.59573808775713 0.5 L 46.59573808775713 -0.5 L 25 -0.5 Z M 92.00980058775713 0.5 L 113.60553867551425 0.5 L 113.60553867551425 3.5 L 120.60553867551425 0 L 113.60553867551425 -3.5 L 113.60553867551425 -0.5 L 92.00980058775713 -0.5 Z"/><text text-anchor="middle" pointer-events="none" font-size="8px" fill="#000000" x="69.30276933775713" y="3" font-family="Helvetica Neue, Helvetica, Arial, sans-serif">RELATION</text></g><g class="relationship" transform="translate(212.77134158991285 -461.62653785873306) rotate(227.11793307203436)"><path class="b-outline" fill="#A5ABB6" stroke="none" d="M 25 0.5 L 44.96289730661056 0.5 L 44.96289730661056 -0.5 L 25 -0.5 Z M 90.37695980661056 0.5 L 110.33985711322111 0.5 L 110.33985711322111 3.5 L 117.33985711322111 0 L 110.33985711322111 -3.5 L 110.33985711322111 -0.5 L 90.37695980661056 -0.5 Z"/><text text-anchor="middle" pointer-events="none" font-size="8px" fill="#000000" x="67.66992855661056" y="3" transform="rotate(180 67.66992855661056 0)" font-family="Helvetica Neue, Helvetica, Arial, sans-serif">RELATION</text></g><g class="relationship" transform="translate(65.67298511295175 -197.4800457802245) rotate(261.40802769599406)"><path class="b-outline" fill="#A5ABB6" stroke="none" d="M 25 0.5 L 45.18292617585706 0.5 L 45.18292617585706 -0.5 L 25 -0.5 Z M 90.59698867585706 0.5 L 110.77991485171412 0.5 L 110.77991485171412 3.5 L 117.77991485171412 0 L 110.77991485171412 -3.5 L 110.77991485171412 -0.5 L 90.59698867585706 -0.5 Z"/><text text-anchor="middle" pointer-events="none" font-size="8px" fill="#000000" x="67.88995742585706" y="3" transform="rotate(180 67.88995742585706 0)" font-family="Helvetica Neue, Helvetica, Arial, sans-serif">RELATION</text></g><g class="relationship" transform="translate(-200.3302291500456 -521.6449480505847) rotate(420.7571268742936)"><path class="b-outline" fill="#A5ABB6" stroke="none" d="M 25 0.5 L 45.06677792611889 0.5 L 45.06677792611889 -0.5 L 25 -0.5 Z M 90.48084042611889 0.5 L 110.54761835223778 0.5 L 110.54761835223778 3.5 L 117.54761835223778 0 L 110.54761835223778 -3.5 L 110.54761835223778 -0.5 L 90.48084042611889 -0.5 Z"/><text text-anchor="middle" pointer-events="none" font-size="8px" fill="#000000" x="67.77380917611889" y="3" font-family="Helvetica Neue, Helvetica, Arial, sans-serif">RELATION</text></g><g class="relationship" transform="translate(-200.3302291500456 -521.6449480505847) rotate(508.08451643122976)"><path class="b-outline" fill="#A5ABB6" stroke="none" d="M 25 0.5 L 47.46663389859597 0.5 L 47.46663389859597 -0.5 L 25 -0.5 Z M 92.88069639859597 0.5 L 115.34733029719195 0.5 L 115.34733029719195 3.5 L 122.34733029719195 0 L 115.34733029719195 -3.5 L 115.34733029719195 -0.5 L 92.88069639859597 -0.5 Z"/><text text-anchor="middle" pointer-events="none" font-size="8px" fill="#000000" x="70.17366514859597" y="3" transform="rotate(180 70.17366514859597 0)" font-family="Helvetica Neue, Helvetica, Arial, sans-serif">RELATION</text></g><g class="relationship" transform="translate(-452.0078718349929 -374.2269941448871) rotate(331.2283314458465)"><path class="b-outline" fill="#A5ABB6" stroke="none" d="M 25 0.5 L 46.01117087253844 0.5 L 46.01117087253844 -0.5 L 25 -0.5 Z M 91.42523337253844 0.5 L 112.43640424507689 0.5 L 112.43640424507689 3.5 L 119.43640424507689 0 L 112.43640424507689 -3.5 L 112.43640424507689 -0.5 L 91.42523337253844 -0.5 Z"/><text text-anchor="middle" pointer-events="none" font-size="8px" fill="#000000" x="68.71820212253844" y="3" font-family="Helvetica Neue, Helvetica, Arial, sans-serif">RELATION</text></g><g class="relationship" transform="translate(-199.05808142402785 -131.5668927624127) rotate(214.58468533757593)"><path class="b-outline" fill="#A5ABB6" stroke="none" d="M 24.018736134675446,-6.953439040707552 L 24.277555179777966,-5.987513214418485 A 181.19457860538574 181.19457860538574 0 0 1 46.445428921171654,-10.466196358136443 L 46.30895279555389,-11.45683971835058 A 182.19457860538574 182.19457860538574 0 0 0 24.018736134675446,-6.953439040707552 Z M 91.72630818752373,-11.99868296428022 L 91.6135049122964,-11.005065622896723 A 181.19457860538574 181.19457860538574 0 0 1 113.88191811180144,-7.056521271834553 L 113.17481491729636,-4.1410444545162095 L 120.80254788462842,-5.892526620875738 L 114.82472237114156,-10.94382369492568 L 114.11761917663648,-8.028346877607335 A 182.19457860538574 182.19457860538574 0 0 0 91.72630818752373,-11.99868296428022"/><text text-anchor="middle" pointer-events="none" font-size="8px" fill="#000000" x="69.00664412568544" y="-9.648639632550129" transform="rotate(180 69.00664412568544 -12.648639632550129)" font-family="Helvetica Neue, Helvetica, Arial, sans-serif">RELATION</text></g><g class="relationship" transform="translate(-199.05808142402785 -131.5668927624127) rotate(529.7911968880065)"><path class="b-outline" fill="#A5ABB6" stroke="none" d="M 24.018736134675446,-6.953439040707552 L 24.277555179777966,-5.987513214418485 A 186.77007557799698 186.77007557799698 0 0 1 47.85660042860903,-10.702983607574396 L 47.724027759837725,-11.694156895902353 A 187.77007557799698 187.77007557799698 0 0 0 24.018736134675446,-6.953439040707552 Z M 93.14473149111485,-12.226114741316962 L 93.03540883342659,-11.232108425182105 A 186.77007557799698 186.77007557799698 0 0 1 116.71842454984399,-7.070161470801384 L 116.01004741899854,-4.154993921500801 L 123.63854502001959,-5.903142757045428 L 117.66292739097125,-10.957051536535495 L 116.9545502601258,-8.041883987234911 A 187.77007557799698 187.77007557799698 0 0 0 93.14473149111485,-12.226114741316962"/><text text-anchor="middle" pointer-events="none" font-size="8px" fill="#000000" x="70.42408998252137" y="-9.838706983946963" transform="rotate(180 70.42408998252137 -12.838706983946963)" font-family="Helvetica Neue, Helvetica, Arial, sans-serif">RELATION</text></g><g class="relationship" transform="translate(-199.05808142402785 -131.5668927624127) rotate(396.79774912284074)"><path class="b-outline" fill="#A5ABB6" stroke="none" d="M 24.018736134675446,-6.953439040707552 L 24.277555179777966,-5.987513214418485 A 181.25984730511445 181.25984730511445 0 0 1 46.4619400040744,-10.468984007734235 L 46.325510915457684,-11.459633846869735 A 182.25984730511445 182.25984730511445 0 0 0 24.018736134675446,-6.953439040707552 Z M 91.74290794136925,-12.00135930816964 L 91.63014666964357,-11.00773719911669 A 181.25984730511445 181.25984730511445 0 0 1 113.91511218182679,-7.056683842779825 L 113.20799380383555,-4.141210708019868 L 120.83573589259855,-5.89265314992694 L 114.85793668581509,-10.9439813557931 L 114.15081830782385,-8.028508221033144 A 182.25984730511445 182.25984730511445 0 0 0 91.74290794136925,-12.00135930816964"/><text text-anchor="middle" pointer-events="none" font-size="8px" fill="#000000" x="69.02323154702962" y="-9.650864610650501" font-family="Helvetica Neue, Helvetica, Arial, sans-serif">RELATION</text></g><g class="relationship" transform="translate(-199.05808142402785 -131.5668927624127) rotate(473.1523712634204)"><path class="b-outline" fill="#A5ABB6" stroke="none" d="M 25 0.5 L 45.4067446535247 0.5 L 45.4067446535247 -0.5 L 25 -0.5 Z M 90.8208071535247 0.5 L 111.2275518070494 0.5 L 111.2275518070494 3.5 L 118.2275518070494 0 L 111.2275518070494 -3.5 L 111.2275518070494 -0.5 L 90.8208071535247 -0.5 Z"/><text text-anchor="middle" pointer-events="none" font-size="8px" fill="#000000" x="68.1137759035247" y="3" transform="rotate(180 68.1137759035247 0)" font-family="Helvetica Neue, Helvetica, Arial, sans-serif">RELATION</text></g><g class="relationship" transform="translate(-318.5156956893423 -213.92806421670468) rotate(394.58468533757593)"><path class="b-outline" fill="#A5ABB6" stroke="none" d="M 24.018736134675446,-6.953439040707552 L 24.277555179777966,-5.987513214418485 A 181.19457860538574 181.19457860538574 0 0 1 46.445428921171654,-10.466196358136443 L 46.30895279555389,-11.45683971835058 A 182.19457860538574 182.19457860538574 0 0 0 24.018736134675446,-6.953439040707552 Z M 91.72630818752373,-11.99868296428022 L 91.6135049122964,-11.005065622896723 A 181.19457860538574 181.19457860538574 0 0 1 113.88191811180144,-7.056521271834553 L 113.17481491729636,-4.1410444545162095 L 120.80254788462842,-5.892526620875738 L 114.82472237114156,-10.94382369492568 L 114.11761917663648,-8.028346877607335 A 182.19457860538574 182.19457860538574 0 0 0 91.72630818752373,-11.99868296428022"/><text text-anchor="middle" pointer-events="none" font-size="8px" fill="#000000" x="69.00664412568544" y="-9.648639632550129" font-family="Helvetica Neue, Helvetica, Arial, sans-serif">RELATION</text></g><g class="relationship" transform="translate(-344.6476936052458 -105.34809321072518) rotate(349.79119688800654)"><path class="b-outline" fill="#A5ABB6" stroke="none" d="M 24.018736134675446,-6.953439040707552 L 24.277555179777966,-5.987513214418485 A 186.77007557799698 186.77007557799698 0 0 1 47.85660042860903,-10.702983607574396 L 47.724027759837725,-11.694156895902353 A 187.77007557799698 187.77007557799698 0 0 0 24.018736134675446,-6.953439040707552 Z M 93.14473149111485,-12.226114741316962 L 93.03540883342659,-11.232108425182105 A 186.77007557799698 186.77007557799698 0 0 1 116.71842454984399,-7.070161470801384 L 116.01004741899854,-4.154993921500801 L 123.63854502001959,-5.903142757045428 L 117.66292739097125,-10.957051536535495 L 116.9545502601258,-8.041883987234911 A 187.77007557799698 187.77007557799698 0 0 0 93.14473149111485,-12.226114741316962"/><text text-anchor="middle" pointer-events="none" font-size="8px" fill="#000000" x="70.42408998252137" y="-9.838706983946963" font-family="Helvetica Neue, Helvetica, Arial, sans-serif">RELATION</text></g><g class="relationship" transform="translate(-82.84344504191012 -44.63435746426911) rotate(216.79774912284074)"><path class="b-outline" fill="#A5ABB6" stroke="none" d="M 24.018736134675446,-6.953439040707552 L 24.277555179777966,-5.987513214418485 A 181.25984730511445 181.25984730511445 0 0 1 46.4619400040744,-10.468984007734235 L 46.325510915457684,-11.459633846869735 A 182.25984730511445 182.25984730511445 0 0 0 24.018736134675446,-6.953439040707552 Z M 91.74290794136925,-12.00135930816964 L 91.63014666964357,-11.00773719911669 A 181.25984730511445 181.25984730511445 0 0 1 113.91511218182679,-7.056683842779825 L 113.20799380383555,-4.141210708019868 L 120.83573589259855,-5.89265314992694 L 114.85793668581509,-10.9439813557931 L 114.15081830782385,-8.028508221033144 A 182.25984730511445 182.25984730511445 0 0 0 91.74290794136925,-12.00135930816964"/><text text-anchor="middle" pointer-events="none" font-size="8px" fill="#000000" x="69.02323154702962" y="-9.650864610650501" transform="rotate(180 69.02323154702962 -12.650864610650501)" font-family="Helvetica Neue, Helvetica, Arial, sans-serif">RELATION</text></g><g class="relationship" transform="translate(-424.7520972724503 243.5132393297529) rotate(283.96214118434335)"><path class="b-outline" fill="#A5ABB6" stroke="none" d="M 25 0.5 L 44.78848677607945 0.5 L 44.78848677607945 -0.5 L 25 -0.5 Z M 90.20254927607945 0.5 L 109.9910360521589 0.5 L 109.9910360521589 3.5 L 116.9910360521589 0 L 109.9910360521589 -3.5 L 109.9910360521589 -0.5 L 90.20254927607945 -0.5 Z"/><text text-anchor="middle" pointer-events="none" font-size="8px" fill="#000000" x="67.49551802607945" y="3" font-family="Helvetica Neue, Helvetica, Arial, sans-serif">RELATION</text></g><g class="relationship" transform="translate(-528.1706572262765 341.4013248220542) rotate(316.57368456369693)"><path class="b-outline" fill="#A5ABB6" stroke="none" d="M 25 0.5 L 44.99246984423385 0.5 L 44.99246984423385 -0.5 L 25 -0.5 Z M 90.40653234423385 0.5 L 110.3990021884677 0.5 L 110.3990021884677 3.5 L 117.3990021884677 0 L 110.3990021884677 -3.5 L 110.3990021884677 -0.5 L 90.40653234423385 -0.5 Z"/><text text-anchor="middle" pointer-events="none" font-size="8px" fill="#000000" x="67.69950109423385" y="3" font-family="Helvetica Neue, Helvetica, Arial, sans-serif">RELATION</text></g><g class="relationship" transform="translate(-384.8394367995565 385.50681792326367) rotate(254.2999754798954)"><path class="b-outline" fill="#A5ABB6" stroke="none" d="M 25 0.5 L 47.54118369079707 0.5 L 47.54118369079707 -0.5 L 25 -0.5 Z M 92.95524619079707 0.5 L 115.49642988159414 0.5 L 115.49642988159414 3.5 L 122.49642988159414 0 L 115.49642988159414 -3.5 L 115.49642988159414 -0.5 L 92.95524619079707 -0.5 Z"/><text text-anchor="middle" pointer-events="none" font-size="8px" fill="#000000" x="70.24821494079707" y="3" transform="rotate(180 70.24821494079707 0)" font-family="Helvetica Neue, Helvetica, Arial, sans-serif">RELATION</text></g><g class="relationship" transform="translate(-279.7449564997299 221.58868646324373) rotate(531.4022077715701)"><path class="b-outline" fill="#A5ABB6" stroke="none" d="M 25 0.5 L 47.1205844440138 0.5 L 47.1205844440138 -0.5 L 25 -0.5 Z M 92.5346469440138 0.5 L 114.6552313880276 0.5 L 114.6552313880276 3.5 L 121.6552313880276 0 L 114.6552313880276 -3.5 L 114.6552313880276 -0.5 L 92.5346469440138 -0.5 Z"/><text text-anchor="middle" pointer-events="none" font-size="8px" fill="#000000" x="69.8276156940138" y="3" transform="rotate(180 69.8276156940138 0)" font-family="Helvetica Neue, Helvetica, Arial, sans-serif">RELATION</text></g><g class="relationship" transform="translate(-301.2488406683409 325.0678513111485) rotate(213.43853101916375)"><path class="b-outline" fill="#A5ABB6" stroke="none" d="M 25 0.5 L 47.79332200465767 0.5 L 47.79332200465767 -0.5 L 25 -0.5 Z M 93.20738450465767 0.5 L 116.00070650931534 0.5 L 116.00070650931534 3.5 L 123.00070650931534 0 L 116.00070650931534 -3.5 L 116.00070650931534 -0.5 L 93.20738450465767 -0.5 Z"/><text text-anchor="middle" pointer-events="none" font-size="8px" fill="#000000" x="70.50035325465767" y="3" transform="rotate(180 70.50035325465767 0)" font-family="Helvetica Neue, Helvetica, Arial, sans-serif">RELATION</text></g></g><g class="layer nodes"><g class="node" aria-label="graph-node7" transform="translate(-55.357521271155456,405.6078667087448)"><circle class="b-outline" cx="0" cy="0" r="25" fill="#F79767" stroke="#f36924" stroke-width="2px"/><text class="caption" text-anchor="middle" pointer-events="none" x="0" y="5" font-size="10px" fill="#FFFFFF" font-family="Helvetica Neue, Helvetica, Arial, sans-serif"> Project</text></g><g class="node" aria-label="graph-node8" transform="translate(28.006453451786243,521.9636775953661)"><circle class="b-outline" cx="0" cy="0" r="25" fill="#F79767" stroke="#f36924" stroke-width="2px"/><text class="caption" text-anchor="middle" pointer-events="none" x="0" y="5" font-size="10px" fill="#FFFFFF" font-family="Helvetica Neue, Helvetica, Arial, sans-serif"> Document</text></g><g class="node" aria-label="graph-node9" transform="translate(82.18148714885665,387.06275746816084)"><circle class="b-outline" cx="0" cy="0" r="25" fill="#F79767" stroke="#f36924" stroke-width="2px"/><text class="caption" text-anchor="middle" pointer-events="none" x="0" y="5" font-size="10px" fill="#FFFFFF" font-family="Helvetica Neue, Helvetica, Arial, sans-serif"> Author</text></g><g class="node" aria-label="graph-node11" transform="translate(170.69763542954647,537.1771305316398)"><circle class="b-outline" cx="0" cy="0" r="25" fill="#F79767" stroke="#f36924" stroke-width="2px"/><text class="caption" text-anchor="middle" pointer-events="none" x="0" y="5" font-size="10px" fill="#FFFFFF" font-family="Helvetica Neue, Helvetica, Arial, sans-serif"> Publishe…</text></g><g class="node" aria-label="graph-node13" transform="translate(337.7376593921038,354.5684333183474)"><circle class="b-outline" cx="0" cy="0" r="25" fill="#F79767" stroke="#f36924" stroke-width="2px"/><text class="caption" text-anchor="middle" pointer-events="none" x="0" y="0" font-size="10px" fill="#FFFFFF" font-family="Helvetica Neue, Helvetica, Arial, sans-serif"> Mary</text><text class="caption" text-anchor="middle" pointer-events="none" x="0" y="10" font-size="10px" fill="#FFFFFF" font-family="Helvetica Neue, Helvetica, Arial, sans-serif"> Johns…</text></g><g class="node" aria-label="graph-node15" transform="translate(327.73581526000225,206.719300470661)"><circle class="b-outline" cx="0" cy="0" r="25" fill="#F79767" stroke="#f36924" stroke-width="2px"/><text class="caption" text-anchor="middle" pointer-events="none" x="0" y="0" font-size="10px" fill="#FFFFFF" font-family="Helvetica Neue, Helvetica, Arial, sans-serif"> Project</text><text class="caption" text-anchor="middle" pointer-events="none" x="0" y="10" font-size="10px" fill="#FFFFFF" font-family="Helvetica Neue, Helvetica, Arial, sans-serif"> Nova</text></g><g class="node" aria-label="graph-node16" transform="translate(481.00445756033974,346.35827112817265)"><circle class="b-outline" cx="0" cy="0" r="25" fill="#F79767" stroke="#f36924" stroke-width="2px"/><text class="caption" text-anchor="middle" pointer-events="none" x="0" y="5" font-size="10px" fill="#FFFFFF" font-family="Helvetica Neue, Helvetica, Arial, sans-serif"> SAGE Ltd</text></g><g class="node" aria-label="graph-node14" transform="translate(279.5233593074782,112.3813950399052)"><circle class="b-outline" cx="0" cy="0" r="25" fill="#F79767" stroke="#f36924" stroke-width="2px"/><text class="caption" text-anchor="middle" pointer-events="none" x="0" y="0" font-size="10px" fill="#FFFFFF" font-family="Helvetica Neue, Helvetica, Arial, sans-serif"> Alex</text><text class="caption" text-anchor="middle" pointer-events="none" x="0" y="10" font-size="10px" fill="#FFFFFF" font-family="Helvetica Neue, Helvetica, Arial, sans-serif"> Carter</text></g><g class="node" aria-label="graph-node17" transform="translate(435.3724282220381,126.16724833037057)"><circle class="b-outline" cx="0" cy="0" r="25" fill="#F79767" stroke="#f36924" stroke-width="2px"/><text class="caption" text-anchor="middle" pointer-events="none" x="0" y="0" font-size="10px" fill="#FFFFFF" font-family="Helvetica Neue, Helvetica, Arial, sans-serif"> Carter</text><text class="caption" text-anchor="middle" pointer-events="none" x="0" y="10" font-size="10px" fill="#FFFFFF" font-family="Helvetica Neue, Helvetica, Arial, sans-serif"> Enterp…</text></g><g class="node" aria-label="graph-node20" transform="translate(362.80768142706717,57.988775949429154)"><circle class="b-outline" cx="0" cy="0" r="25" fill="#F79767" stroke="#f36924" stroke-width="2px"/><text class="caption" text-anchor="middle" pointer-events="none" x="0" y="5" font-size="10px" fill="#FFFFFF" font-family="Helvetica Neue, Helvetica, Arial, sans-serif"> Email</text></g><g class="node" aria-label="graph-node21" transform="translate(374.3672956336547,-130.46254723838442)"><circle class="b-outline" cx="0" cy="0" r="25" fill="#F79767" stroke="#f36924" stroke-width="2px"/><text class="caption" text-anchor="middle" pointer-events="none" x="0" y="5" font-size="10px" fill="#FFFFFF" font-family="Helvetica Neue, Helvetica, Arial, sans-serif"> Chris</text></g><g class="node" aria-label="graph-node25" transform="translate(483.0383248990443,-224.07930679142288)"><circle class="b-outline" cx="0" cy="0" r="25" fill="#F79767" stroke="#f36924" stroke-width="2px"/><text class="caption" text-anchor="middle" pointer-events="none" x="0" y="0" font-size="10px" fill="#FFFFFF" font-family="Helvetica Neue, Helvetica, Arial, sans-serif"> Team</text><text class="caption" text-anchor="middle" pointer-events="none" x="0" y="10" font-size="10px" fill="#FFFFFF" font-family="Helvetica Neue, Helvetica, Arial, sans-serif"> Delta</text></g><g class="node" aria-label="graph-node22" transform="translate(455.82647743040036,-365.3848124888617)"><circle class="b-outline" cx="0" cy="0" r="25" fill="#F79767" stroke="#f36924" stroke-width="2px"/><text class="caption" text-anchor="middle" pointer-events="none" x="0" y="5" font-size="10px" fill="#FFFFFF" font-family="Helvetica Neue, Helvetica, Arial, sans-serif"> Emma</text></g><g class="node" aria-label="graph-node23" transform="translate(341.41444787159423,-257.8972066182953)"><circle class="b-outline" cx="0" cy="0" r="25" fill="#F79767" stroke="#f36924" stroke-width="2px"/><text class="caption" text-anchor="middle" pointer-events="none" x="0" y="5" font-size="10px" fill="#FFFFFF" font-family="Helvetica Neue, Helvetica, Arial, sans-serif"> Sam</text></g><g class="node" aria-label="graph-node24" transform="translate(212.77134158991285,-461.62653785873306)"><circle class="b-outline" cx="0" cy="0" r="25" fill="#F79767" stroke="#f36924" stroke-width="2px"/><text class="caption" text-anchor="middle" pointer-events="none" x="0" y="5" font-size="10px" fill="#FFFFFF" font-family="Helvetica Neue, Helvetica, Arial, sans-serif"> Ryan</text></g><g class="node" aria-label="graph-node26" transform="translate(115.91027071735269,-565.9269111679072)"><circle class="b-outline" cx="0" cy="0" r="25" fill="#F79767" stroke="#f36924" stroke-width="2px"/><text class="caption" text-anchor="middle" pointer-events="none" x="0" y="5" font-size="10px" fill="#FFFFFF" font-family="Helvetica Neue, Helvetica, Arial, sans-serif"> DevOps</text></g><g class="node" aria-label="graph-node27" transform="translate(65.67298511295175,-197.4800457802245)"><circle class="b-outline" cx="0" cy="0" r="25" fill="#F79767" stroke="#f36924" stroke-width="2px"/><text class="caption" text-anchor="middle" pointer-events="none" x="0" y="5" font-size="10px" fill="#FFFFFF" font-family="Helvetica Neue, Helvetica, Arial, sans-serif"> microser…</text></g><g class="node" aria-label="graph-node28" transform="translate(44.34212164608391,-338.6575877223499)"><circle class="b-outline" cx="0" cy="0" r="25" fill="#F79767" stroke="#f36924" stroke-width="2px"/><text class="caption" text-anchor="middle" pointer-events="none" x="0" y="5" font-size="10px" fill="#FFFFFF" font-family="Helvetica Neue, Helvetica, Arial, sans-serif"> Chat Log</text></g><g class="node" aria-label="graph-node29" transform="translate(-200.3302291500456,-521.6449480505847)"><circle class="b-outline" cx="0" cy="0" r="25" fill="#F79767" stroke="#f36924" stroke-width="2px"/><text class="caption" text-anchor="middle" pointer-events="none" x="0" y="5" font-size="10px" fill="#FFFFFF" font-family="Helvetica Neue, Helvetica, Arial, sans-serif"> John Doe</text></g><g class="node" aria-label="graph-node30" transform="translate(-130.69390577789864,-397.2640573755899)"><circle class="b-outline" cx="0" cy="0" r="25" fill="#F79767" stroke="#f36924" stroke-width="2px"/><text class="caption" text-anchor="middle" pointer-events="none" x="0" y="0" font-size="10px" fill="#FFFFFF" font-family="Helvetica Neue, Helvetica, Arial, sans-serif"> Jane</text><text class="caption" text-anchor="middle" pointer-events="none" x="0" y="10" font-size="10px" fill="#FFFFFF" font-family="Helvetica Neue, Helvetica, Arial, sans-serif"> Smith</text></g><g class="node" aria-label="graph-node33" transform="translate(-325.4028943492421,-443.74716781469175)"><circle class="b-outline" cx="0" cy="0" r="25" fill="#F79767" stroke="#f36924" stroke-width="2px"/><text class="caption" text-anchor="middle" pointer-events="none" x="0" y="0" font-size="10px" fill="#FFFFFF" font-family="Helvetica Neue, Helvetica, Arial, sans-serif"> Project</text><text class="caption" text-anchor="middle" pointer-events="none" x="0" y="10" font-size="10px" fill="#FFFFFF" font-family="Helvetica Neue, Helvetica, Arial, sans-serif"> Phoenix</text></g><g class="node" aria-label="graph-node31" transform="translate(-452.0078718349929,-374.2269941448871)"><circle class="b-outline" cx="0" cy="0" r="25" fill="#F79767" stroke="#f36924" stroke-width="2px"/><text class="caption" text-anchor="middle" pointer-events="none" x="0" y="0" font-size="10px" fill="#FFFFFF" font-family="Helvetica Neue, Helvetica, Arial, sans-serif"> Michael</text><text class="caption" text-anchor="middle" pointer-events="none" x="0" y="10" font-size="10px" fill="#FFFFFF" font-family="Helvetica Neue, Helvetica, Arial, sans-serif"> Brown</text></g><g class="node" aria-label="graph-node36" transform="translate(-199.05808142402785,-131.5668927624127)"><circle class="b-outline" cx="0" cy="0" r="25" fill="#F79767" stroke="#f36924" stroke-width="2px"/><text class="caption" text-anchor="middle" pointer-events="none" x="0" y="-5" font-size="10px" fill="#FFFFFF" font-family="Helvetica Neue, Helvetica, Arial, sans-serif"> Q1</text><text class="caption" text-anchor="middle" pointer-events="none" x="0" y="5" font-size="10px" fill="#FFFFFF" font-family="Helvetica Neue, Helvetica, Arial, sans-serif"> Company</text><text class="caption" text-anchor="middle" pointer-events="none" x="0" y="15" font-size="10px" fill="#FFFFFF" font-family="Helvetica Neue, Helvetica, Arial, sans-serif"> Perf…</text></g><g class="node" aria-label="graph-node38" transform="translate(-318.5156956893423,-213.92806421670468)"><circle class="b-outline" cx="0" cy="0" r="25" fill="#F79767" stroke="#f36924" stroke-width="2px"/><text class="caption" text-anchor="middle" pointer-events="none" x="0" y="5" font-size="10px" fill="#FFFFFF" font-family="Helvetica Neue, Helvetica, Arial, sans-serif"> Phoenix</text></g><g class="node" aria-label="graph-node39" transform="translate(-344.6476936052458,-105.34809321072518)"><circle class="b-outline" cx="0" cy="0" r="25" fill="#F79767" stroke="#f36924" stroke-width="2px"/><text class="caption" text-anchor="middle" pointer-events="none" x="0" y="5" font-size="10px" fill="#FFFFFF" font-family="Helvetica Neue, Helvetica, Arial, sans-serif"> Orion</text></g><g class="node" aria-label="graph-node40" transform="translate(-82.84344504191012,-44.63435746426911)"><circle class="b-outline" cx="0" cy="0" r="25" fill="#F79767" stroke="#f36924" stroke-width="2px"/><text class="caption" text-anchor="middle" pointer-events="none" x="0" y="5" font-size="10px" fill="#FFFFFF" font-family="Helvetica Neue, Helvetica, Arial, sans-serif"> Nova</text></g><g class="node" aria-label="graph-node41" transform="translate(-255.3719631591957,0.1254696606167953)"><circle class="b-outline" cx="0" cy="0" r="25" fill="#F79767" stroke="#f36924" stroke-width="2px"/><text class="caption" text-anchor="middle" pointer-events="none" x="0" y="0" font-size="10px" fill="#FFFFFF" font-family="Helvetica Neue, Helvetica, Arial, sans-serif"> SAGE</text><text class="caption" text-anchor="middle" pointer-events="none" x="0" y="10" font-size="10px" fill="#FFFFFF" font-family="Helvetica Neue, Helvetica, Arial, sans-serif"> Ltd.</text></g><g class="node" aria-label="graph-node44" transform="translate(-424.7520972724503,243.5132393297529)"><circle class="b-outline" cx="0" cy="0" r="25" fill="#F79767" stroke="#f36924" stroke-width="2px"/><text class="caption" text-anchor="middle" pointer-events="none" x="0" y="0" font-size="10px" fill="#FFFFFF" font-family="Helvetica Neue, Helvetica, Arial, sans-serif"> Project</text><text class="caption" text-anchor="middle" pointer-events="none" x="0" y="10" font-size="10px" fill="#FFFFFF" font-family="Helvetica Neue, Helvetica, Arial, sans-serif"> Orion</text></g><g class="node" aria-label="graph-node43" transform="translate(-390.49239938306727,105.71727632758912)"><circle class="b-outline" cx="0" cy="0" r="25" fill="#F79767" stroke="#f36924" stroke-width="2px"/><text class="caption" text-anchor="middle" pointer-events="none" x="0" y="-5" font-size="10px" fill="#FFFFFF" font-family="Helvetica Neue, Helvetica, Arial, sans-serif"> Weekly</text><text class="caption" text-anchor="middle" pointer-events="none" x="0" y="5" font-size="10px" fill="#FFFFFF" font-family="Helvetica Neue, Helvetica, Arial, sans-serif"> Sync -</text><text class="caption" text-anchor="middle" pointer-events="none" x="0" y="15" font-size="10px" fill="#FFFFFF" font-family="Helvetica Neue, Helvetica, Arial, sans-serif"> Proje</text></g><g class="node" aria-label="graph-node45" transform="translate(-528.1706572262765,341.4013248220542)"><circle class="b-outline" cx="0" cy="0" r="25" fill="#F79767" stroke="#f36924" stroke-width="2px"/><text class="caption" text-anchor="middle" pointer-events="none" x="0" y="0" font-size="10px" fill="#FFFFFF" font-family="Helvetica Neue, Helvetica, Arial, sans-serif"> Alice</text><text class="caption" text-anchor="middle" pointer-events="none" x="0" y="10" font-size="10px" fill="#FFFFFF" font-family="Helvetica Neue, Helvetica, Arial, sans-serif"> Johns…</text></g><g class="node" aria-label="graph-node46" transform="translate(-384.8394367995565,385.50681792326367)"><circle class="b-outline" cx="0" cy="0" r="25" fill="#F79767" stroke="#f36924" stroke-width="2px"/><text class="caption" text-anchor="middle" pointer-events="none" x="0" y="0" font-size="10px" fill="#FFFFFF" font-family="Helvetica Neue, Helvetica, Arial, sans-serif"> Robert</text><text class="caption" text-anchor="middle" pointer-events="none" x="0" y="10" font-size="10px" fill="#FFFFFF" font-family="Helvetica Neue, Helvetica, Arial, sans-serif"> Lee</text></g><g class="node" aria-label="graph-node47" transform="translate(-279.7449564997299,221.58868646324373)"><circle class="b-outline" cx="0" cy="0" r="25" fill="#F79767" stroke="#f36924" stroke-width="2px"/><text class="caption" text-anchor="middle" pointer-events="none" x="0" y="0" font-size="10px" fill="#FFFFFF" font-family="Helvetica Neue, Helvetica, Arial, sans-serif"> Karen</text><text class="caption" text-anchor="middle" pointer-events="none" x="0" y="10" font-size="10px" fill="#FFFFFF" font-family="Helvetica Neue, Helvetica, Arial, sans-serif"> Davis</text></g><g class="node" aria-label="graph-node48" transform="translate(-301.2488406683409,325.0678513111485)"><circle class="b-outline" cx="0" cy="0" r="25" fill="#F79767" stroke="#f36924" stroke-width="2px"/><text class="caption" text-anchor="middle" pointer-events="none" x="0" y="0" font-size="10px" fill="#FFFFFF" font-family="Helvetica Neue, Helvetica, Arial, sans-serif"> Steve</text><text class="caption" text-anchor="middle" pointer-events="none" x="0" y="10" font-size="10px" fill="#FFFFFF" font-family="Helvetica Neue, Helvetica, Arial, sans-serif"> Martin</text></g></g></svg>